<svg id="Layer_1" data-name="Layer 1" xmlns="http://www.w3.org/2000/svg" viewBox="0 0 200 120"><defs><style>.cls-1{fill:#85b747;}.cls-2{fill:#86b845;}.cls-3{fill:#258848;}.cls-4{fill:#3e8d4b;}.cls-5,.cls-8{fill:#484848;}.cls-6{fill:#656464;}.cls-7{fill:#525251;}.cls-8{font-size:59.71px;font-family:Bauhaus93, "Bauhaus 93";}</style></defs><path class="cls-1" d="M54,97.44c14.43-1.62,25.77-6.22,30.16-20.6C78.44,84,71.56,89.22,61.85,91.67a14.74,14.74,0,0,1,3.32-7c3-3.75,6.12-7.48,9.3-11.13,5.86-6.71,10-14.19,10.24-24.54a36.33,36.33,0,0,1,8.55,22.71A32.78,32.78,0,0,1,89.73,88C82.76,101.69,68.39,105.83,54,97.44Z"/><path class="cls-2" d="M18.94,49.05C18.36,68,35,76.47,42.33,91.79,34.28,89.91,28.65,86.5,24,81.4c-.95-1-1.75-2.18-2.6-3.3-.52-.69-1.26-1.19-2-.79-1.23.66-.33,1.45.05,2.28,4.79,10.32,13.49,15.07,24.15,17,1.51.28,3.06.41,5.84.76-6.88,4.43-13.34,5.37-20.06,3.75-8.81-2.12-14-8.41-17-16.54C8,73.11,10.53,58.61,18.94,49.05Z"/><path class="cls-3" d="M39.4,74.49c-9-2.41-16.76-13.28-17.59-24.43A29.94,29.94,0,0,1,75.06,29.42C83.31,39.88,84,54,76.44,64.73a27.65,27.65,0,0,1-10.36,8.93c-.76.37-1.51,1.62-2.24.35s.77-1.28,1.41-1.83c6.56-5.66,11.72-12,11.56-21.4A25.12,25.12,0,1,0,36.05,70.47C37.31,71.49,39.31,71.89,39.4,74.49Z"/><path class="cls-4" d="M38.1,58.79c3.82-.61,7.56-3.53,10.71,1.61,1,1.71,3.44,1.84,5.17.53,2.4-1.82,2.57-4.43,1.85-7.15-.63-2.42-2.26-3.79-4.71-3.44-1.6.23-3.06,1.62-4.63,1.74-4.32.31-8,.23-7-6.33C41.51,33,41.19,33,54.19,33c2.39,0,4.79,0,7.18.07,2.65.11,2.82,2,2.84,4.07s-.44,3.84-3,3.86c-3.12,0-6.23,0-9.35.06-1.4,0-3.05,0-3.09,2.06-.06,2.36,1.52,1.61,2.93,1.59,8.83-.09,13.09,2.65,14,8.86A12.3,12.3,0,0,1,57.22,67C48.64,69.56,41.69,66.7,38.1,58.79Z"/><path class="cls-5" d="M51.37,79.17c-3.12,0-6.24,0-9.36,0-.79,0-1.61-.19-1.73-1.18-.14-1.22.69-1.68,1.7-1.68,6.4,0,12.79,0,19.19,0,1,0,2,.43,2.06,1.46s-1,1.45-2,1.45Z"/><path class="cls-6" d="M51.87,88.82c1.86,0,3.73-.08,5.59,0,.94.06,1.89.49,1.86,1.67s-.93,1.59-1.91,1.59q-5.82,0-11.64,0a1.57,1.57,0,1,1,0-3.14c2-.1,4,0,6,0Z"/><path class="cls-7" d="M52.28,82.71h7c1,0,2,.28,2,1.42s-1,1.49-2,1.5c-5,0-9.91.05-14.86,0-1.12,0-2.33-.23-2.18-1.71.12-1.16,1.22-1.24,2.16-1.25C47,82.69,49.65,82.71,52.28,82.71Z"/><text class="cls-8" transform="translate(103.65 77.36)">job</text></svg>